<svg width="226" height="167" viewBox="0 0 226 167" fill="none" xmlns="http://www.w3.org/2000/svg">
<g filter="url(#filter0_d_353_4768)">
<rect x="21.3229" y="21.3229" width="182.562" height="124.354" rx="14.5521" fill="white" stroke="#D9D9D9" stroke-width="2.64583"/>
<path d="M120.78 123.187C141.404 123.287 160.229 106.213 160.229 85.4422C160.229 62.7302 141.404 47.0294 120.78 47.0378H103.03C82.1593 47.0294 64.9791 62.7345 64.9791 85.4422C64.9791 106.217 82.1593 123.287 103.03 123.187H120.78Z" fill="#0079BE"/>
<path d="M103.114 50.1848C84.0415 50.1912 68.5886 65.7903 68.5823 85.0433C68.5886 104.294 84.0415 119.893 103.114 119.9C122.189 119.893 137.649 104.294 137.651 85.0433C137.649 65.7903 122.192 50.1912 103.114 50.1848ZM81.2269 85.0433C81.2229 80.5919 82.5619 76.2427 85.0688 72.5643C87.5758 68.8859 91.1341 66.0494 95.2788 64.4254V105.659C91.1338 104.036 87.575 101.2 85.0679 97.5221C82.5608 93.8439 81.2221 89.4947 81.2269 85.0433ZM110.948 105.668V64.4232C115.096 66.0449 118.657 68.8812 121.166 72.5609C123.675 76.2405 125.014 80.5919 125.008 85.0455C125.013 89.4988 123.673 93.8498 121.165 97.5293C118.656 101.209 115.095 104.045 110.948 105.668Z" fill="white"/>
<path d="M120.78 123.187C141.404 123.287 160.229 106.213 160.229 85.4422C160.229 62.7302 141.404 47.0294 120.78 47.0378H103.03C82.1593 47.0294 64.9791 62.7345 64.9791 85.4422C64.9791 106.217 82.1593 123.287 103.03 123.187H120.78Z" fill="#0079BE"/>
<path d="M103.114 50.1848C84.0415 50.1912 68.5886 65.7903 68.5823 85.0433C68.5886 104.294 84.0415 119.893 103.114 119.9C122.189 119.893 137.649 104.294 137.651 85.0433C137.649 65.7903 122.192 50.1912 103.114 50.1848ZM81.2269 85.0433C81.2229 80.5919 82.5619 76.2427 85.0688 72.5643C87.5758 68.8859 91.1341 66.0494 95.2788 64.4254V105.659C91.1338 104.036 87.575 101.2 85.0679 97.5221C82.5608 93.8439 81.2221 89.4947 81.2269 85.0433ZM110.948 105.668V64.4232C115.096 66.0449 118.657 68.8812 121.166 72.5609C123.675 76.2405 125.014 80.5919 125.008 85.0455C125.013 89.4988 123.673 93.8498 121.165 97.5293C118.656 101.209 115.095 104.045 110.948 105.668Z" fill="white"/>
</g>
<defs>
<filter id="filter0_d_353_4768" x="0" y="0" width="225.208" height="167" filterUnits="userSpaceOnUse" color-interpolation-filters="sRGB">
<feFlood flood-opacity="0" result="BackgroundImageFix"/>
<feColorMatrix in="SourceAlpha" type="matrix" values="0 0 0 0 0 0 0 0 0 0 0 0 0 0 0 0 0 0 127 0" result="hardAlpha"/>
<feOffset/>
<feGaussianBlur stdDeviation="10"/>
<feComposite in2="hardAlpha" operator="out"/>
<feColorMatrix type="matrix" values="0 0 0 0 0 0 0 0 0 0 0 0 0 0 0 0 0 0 0.07 0"/>
<feBlend mode="normal" in2="BackgroundImageFix" result="effect1_dropShadow_353_4768"/>
<feBlend mode="normal" in="SourceGraphic" in2="effect1_dropShadow_353_4768" result="shape"/>
</filter>
</defs>
</svg>
